<?xml version="1.0" encoding="UTF-8" standalone="no"?>
<!DOCTYPE svg PUBLIC "-//W3C//DTD SVG 1.1//EN"
 "http://www.w3.org/Graphics/SVG/1.1/DTD/svg11.dtd">
<!-- Generated by graphviz version 7.1.0 (0)
 -->
<!-- Title: NFA Pages: 1 -->
<svg width="441pt" height="1604pt"
 viewBox="0.00 0.00 441.03 1604.00" xmlns="http://www.w3.org/2000/svg" xmlns:xlink="http://www.w3.org/1999/xlink">
<g id="graph0" class="graph" transform="scale(1 1) rotate(0) translate(4 1600)">
<title>NFA</title>
<polygon fill="white" stroke="none" points="-4,4 -4,-1600 437.03,-1600 437.03,4 -4,4"/>
<!-- state0 -->
<g id="node1" class="node">
<title>state0</title>
<ellipse fill="none" stroke="black" cx="287.03" cy="-22" rx="18" ry="18"/>
<ellipse fill="none" stroke="black" cx="287.03" cy="-22" rx="22" ry="22"/>
<text text-anchor="middle" x="287.03" y="-18.3" font-family="Times,serif" font-size="14.00">0</text>
</g>
<!-- state1 -->
<g id="node2" class="node">
<title>state1</title>
<ellipse fill="none" stroke="black" cx="198.03" cy="-113" rx="27" ry="18"/>
<text text-anchor="middle" x="198.03" y="-109.3" font-family="Times,serif" font-size="14.00">1</text>
</g>
<!-- state1&#45;&gt;state0 -->
<g id="edge1" class="edge">
<title>state1&#45;&gt;state0</title>
<path fill="none" stroke="black" d="M215.85,-99.15C224.14,-92.84 233.93,-84.91 242.03,-77 250.8,-68.43 259.62,-58.26 267.09,-49.08"/>
<polygon fill="black" stroke="black" points="269.64,-51.5 273.13,-41.5 264.16,-47.14 269.64,-51.5"/>
<text text-anchor="middle" x="260.03" y="-65.8" font-family="Times,serif" font-size="14.00">ε</text>
</g>
<!-- state2 -->
<g id="node3" class="node">
<title>state2</title>
<ellipse fill="none" stroke="black" cx="165.03" cy="-22" rx="27" ry="18"/>
<text text-anchor="middle" x="165.03" y="-18.3" font-family="Times,serif" font-size="14.00">2</text>
</g>
<!-- state1&#45;&gt;state2 -->
<g id="edge2" class="edge">
<title>state1&#45;&gt;state2</title>
<path fill="none" stroke="black" d="M176.92,-101.7C167.47,-95.87 157.28,-87.61 152.03,-77 147.87,-68.62 148.73,-58.83 151.41,-49.91"/>
<polygon fill="black" stroke="black" points="154.64,-51.24 154.97,-40.66 148.11,-48.73 154.64,-51.24"/>
<text text-anchor="middle" x="156.03" y="-65.8" font-family="Times,serif" font-size="14.00">ε</text>
</g>
<!-- state2&#45;&gt;state1 -->
<g id="edge3" class="edge">
<title>state2&#45;&gt;state1</title>
<path fill="none" stroke="black" d="M169.85,-40.21C173,-50.91 177.37,-64.89 182.03,-77 183.05,-79.67 184.19,-82.43 185.36,-85.18"/>
<polygon fill="black" stroke="black" points="182.05,-86.36 189.33,-94.06 188.45,-83.51 182.05,-86.36"/>
<text text-anchor="middle" x="212.03" y="-65.8" font-family="Times,serif" font-size="14.00">[A&#45;Za&#45;z.]</text>
</g>
<!-- state3 -->
<g id="node4" class="node">
<title>state3</title>
<ellipse fill="none" stroke="black" cx="226.03" cy="-200" rx="27" ry="18"/>
<text text-anchor="middle" x="226.03" y="-196.3" font-family="Times,serif" font-size="14.00">3</text>
</g>
<!-- state3&#45;&gt;state1 -->
<g id="edge4" class="edge">
<title>state3&#45;&gt;state1</title>
<path fill="none" stroke="black" d="M214.77,-183.29C211.11,-177.48 207.39,-170.68 205.03,-164 202.63,-157.22 201.05,-149.66 200.01,-142.5"/>
<polygon fill="black" stroke="black" points="203.49,-142.12 198.89,-132.57 196.53,-142.9 203.49,-142.12"/>
<text text-anchor="middle" x="235.03" y="-152.8" font-family="Times,serif" font-size="14.00">[A&#45;Za&#45;z.]</text>
</g>
<!-- state4 -->
<g id="node5" class="node">
<title>state4</title>
<ellipse fill="none" stroke="black" cx="226.03" cy="-287" rx="27" ry="18"/>
<text text-anchor="middle" x="226.03" y="-283.3" font-family="Times,serif" font-size="14.00">4</text>
</g>
<!-- state4&#45;&gt;state0 -->
<g id="edge6" class="edge">
<title>state4&#45;&gt;state0</title>
<path fill="none" stroke="black" d="M236.65,-269.97C244.95,-256.63 256.05,-236.84 262.03,-218 279.56,-162.72 284.83,-94.91 286.4,-55.56"/>
<polygon fill="black" stroke="black" points="289.88,-55.93 286.72,-45.82 282.89,-55.7 289.88,-55.93"/>
<text text-anchor="middle" x="282.03" y="-152.8" font-family="Times,serif" font-size="14.00">ε</text>
</g>
<!-- state4&#45;&gt;state3 -->
<g id="edge5" class="edge">
<title>state4&#45;&gt;state3</title>
<path fill="none" stroke="black" d="M226.03,-268.8C226.03,-257.58 226.03,-242.67 226.03,-229.69"/>
<polygon fill="black" stroke="black" points="229.53,-229.98 226.03,-219.98 222.53,-229.98 229.53,-229.98"/>
<text text-anchor="middle" x="230.03" y="-239.8" font-family="Times,serif" font-size="14.00">ε</text>
</g>
<!-- state5 -->
<g id="node6" class="node">
<title>state5</title>
<ellipse fill="none" stroke="black" cx="173.03" cy="-374" rx="27" ry="18"/>
<text text-anchor="middle" x="173.03" y="-370.3" font-family="Times,serif" font-size="14.00">5</text>
</g>
<!-- state5&#45;&gt;state4 -->
<g id="edge7" class="edge">
<title>state5&#45;&gt;state4</title>
<path fill="none" stroke="black" d="M182.99,-357.01C190.57,-344.86 201.15,-327.9 209.92,-313.83"/>
<polygon fill="black" stroke="black" points="212.8,-315.83 215.12,-305.49 206.86,-312.12 212.8,-315.83"/>
<text text-anchor="middle" x="207.03" y="-326.8" font-family="Times,serif" font-size="14.00">ε</text>
</g>
<!-- state9 -->
<g id="node7" class="node">
<title>state9</title>
<ellipse fill="none" stroke="black" cx="102.03" cy="-287" rx="27" ry="18"/>
<text text-anchor="middle" x="102.03" y="-283.3" font-family="Times,serif" font-size="14.00">9</text>
</g>
<!-- state5&#45;&gt;state9 -->
<g id="edge8" class="edge">
<title>state5&#45;&gt;state9</title>
<path fill="none" stroke="black" d="M160.33,-357.8C149.7,-345.07 134.32,-326.67 122.03,-311.95"/>
<polygon fill="black" stroke="black" points="124.92,-309.94 115.82,-304.51 119.54,-314.43 124.92,-309.94"/>
<text text-anchor="middle" x="146.03" y="-326.8" font-family="Times,serif" font-size="14.00">ε</text>
</g>
<!-- state7 -->
<g id="node9" class="node">
<title>state7</title>
<ellipse fill="none" stroke="black" cx="89.03" cy="-200" rx="27" ry="18"/>
<text text-anchor="middle" x="89.03" y="-196.3" font-family="Times,serif" font-size="14.00">7</text>
</g>
<!-- state9&#45;&gt;state7 -->
<g id="edge13" class="edge">
<title>state9&#45;&gt;state7</title>
<path fill="none" stroke="black" d="M94.43,-269.25C92.23,-263.58 90.13,-257.12 89.03,-251 87.79,-244.1 87.33,-236.59 87.28,-229.52"/>
<polygon fill="black" stroke="black" points="90.78,-229.85 87.5,-219.77 83.78,-229.69 90.78,-229.85"/>
<text text-anchor="middle" x="119.03" y="-239.8" font-family="Times,serif" font-size="14.00">[A&#45;Za&#45;z.]</text>
</g>
<!-- state6 -->
<g id="node8" class="node">
<title>state6</title>
<ellipse fill="none" stroke="black" cx="123.03" cy="-113" rx="27" ry="18"/>
<text text-anchor="middle" x="123.03" y="-109.3" font-family="Times,serif" font-size="14.00">6</text>
</g>
<!-- state6&#45;&gt;state5 -->
<g id="edge9" class="edge">
<title>state6&#45;&gt;state5</title>
<path fill="none" stroke="black" d="M126.84,-130.93C132.09,-154.45 141.72,-198.37 149.03,-236 156.28,-273.37 163.7,-316.68 168.33,-344.43"/>
<polygon fill="black" stroke="black" points="164.86,-344.88 169.95,-354.17 171.77,-343.73 164.86,-344.88"/>
<text text-anchor="middle" x="158.53" y="-239.8" font-family="Times,serif" font-size="14.00">&#39;/&#39;</text>
</g>
<!-- state7&#45;&gt;state6 -->
<g id="edge10" class="edge">
<title>state7&#45;&gt;state6</title>
<path fill="none" stroke="black" d="M95.74,-182.21C100.4,-170.56 106.71,-154.8 112.08,-141.36"/>
<polygon fill="black" stroke="black" points="115.3,-142.75 115.76,-132.16 108.8,-140.15 115.3,-142.75"/>
<text text-anchor="middle" x="113.03" y="-152.8" font-family="Times,serif" font-size="14.00">ε</text>
</g>
<!-- state8 -->
<g id="node10" class="node">
<title>state8</title>
<ellipse fill="none" stroke="black" cx="30.03" cy="-113" rx="27" ry="18"/>
<text text-anchor="middle" x="30.03" y="-109.3" font-family="Times,serif" font-size="14.00">8</text>
</g>
<!-- state7&#45;&gt;state8 -->
<g id="edge11" class="edge">
<title>state7&#45;&gt;state8</title>
<path fill="none" stroke="black" d="M83.44,-181.91C79.69,-171.81 74.13,-159.08 67.03,-149 63.61,-144.15 59.45,-139.45 55.16,-135.14"/>
<polygon fill="black" stroke="black" points="57.72,-132.74 48.04,-128.45 52.93,-137.84 57.72,-132.74"/>
<text text-anchor="middle" x="80.03" y="-152.8" font-family="Times,serif" font-size="14.00">ε</text>
</g>
<!-- state8&#45;&gt;state7 -->
<g id="edge12" class="edge">
<title>state8&#45;&gt;state7</title>
<path fill="none" stroke="black" d="M14.08,-128C4.37,-138.26 -4.79,-152.38 3.03,-164 13.85,-180.1 33.5,-188.79 51.29,-193.49"/>
<polygon fill="black" stroke="black" points="50.31,-196.86 60.84,-195.65 51.85,-190.03 50.31,-196.86"/>
<text text-anchor="middle" x="33.03" y="-152.8" font-family="Times,serif" font-size="14.00">[A&#45;Za&#45;z.]</text>
</g>
<!-- state10 -->
<g id="node11" class="node">
<title>state10</title>
<ellipse fill="none" stroke="black" cx="177.03" cy="-461" rx="27" ry="18"/>
<text text-anchor="middle" x="177.03" y="-457.3" font-family="Times,serif" font-size="14.00">10</text>
</g>
<!-- state10&#45;&gt;state5 -->
<g id="edge14" class="edge">
<title>state10&#45;&gt;state5</title>
<path fill="none" stroke="black" d="M176.22,-442.8C175.69,-431.58 174.99,-416.67 174.38,-403.69"/>
<polygon fill="black" stroke="black" points="177.89,-403.8 173.92,-393.98 170.89,-404.13 177.89,-403.8"/>
<text text-anchor="middle" x="182.53" y="-413.8" font-family="Times,serif" font-size="14.00">&#39;/&#39;</text>
</g>
<!-- state11 -->
<g id="node12" class="node">
<title>state11</title>
<ellipse fill="none" stroke="black" cx="230.03" cy="-548" rx="27" ry="18"/>
<text text-anchor="middle" x="230.03" y="-544.3" font-family="Times,serif" font-size="14.00">11</text>
</g>
<!-- state11&#45;&gt;state10 -->
<g id="edge15" class="edge">
<title>state11&#45;&gt;state10</title>
<path fill="none" stroke="black" d="M219.35,-531.06C215.42,-525.11 210.97,-518.28 207.03,-512 202.16,-504.25 196.99,-495.74 192.34,-487.97"/>
<polygon fill="black" stroke="black" points="195.48,-486.42 187.36,-479.62 189.47,-490 195.48,-486.42"/>
<text text-anchor="middle" x="211.03" y="-500.8" font-family="Times,serif" font-size="14.00">ε</text>
</g>
<!-- state12 -->
<g id="node13" class="node">
<title>state12</title>
<ellipse fill="none" stroke="black" cx="250.03" cy="-461" rx="27" ry="18"/>
<text text-anchor="middle" x="250.03" y="-457.3" font-family="Times,serif" font-size="14.00">12</text>
</g>
<!-- state11&#45;&gt;state12 -->
<g id="edge16" class="edge">
<title>state11&#45;&gt;state12</title>
<path fill="none" stroke="black" d="M222.81,-530.43C219.52,-520.51 217.14,-507.79 221.03,-497 222.55,-492.78 224.82,-488.7 227.45,-484.92"/>
<polygon fill="black" stroke="black" points="229.97,-487.37 233.49,-477.38 224.51,-482.99 229.97,-487.37"/>
<text text-anchor="middle" x="225.03" y="-500.8" font-family="Times,serif" font-size="14.00">ε</text>
</g>
<!-- state12&#45;&gt;state11 -->
<g id="edge17" class="edge">
<title>state12&#45;&gt;state11</title>
<path fill="none" stroke="black" d="M245.98,-479.18C243.3,-490.58 239.72,-505.8 236.63,-518.94"/>
<polygon fill="black" stroke="black" points="233.3,-517.79 234.42,-528.33 240.12,-519.39 233.3,-517.79"/>
<text text-anchor="middle" x="272.03" y="-500.8" font-family="Times,serif" font-size="14.00">[A&#45;Za&#45;z.]</text>
</g>
<!-- state13 -->
<g id="node14" class="node">
<title>state13</title>
<ellipse fill="none" stroke="black" cx="246.03" cy="-635" rx="27" ry="18"/>
<text text-anchor="middle" x="246.03" y="-631.3" font-family="Times,serif" font-size="14.00">13</text>
</g>
<!-- state13&#45;&gt;state11 -->
<g id="edge18" class="edge">
<title>state13&#45;&gt;state11</title>
<path fill="none" stroke="black" d="M242.79,-616.8C240.66,-605.51 237.83,-590.47 235.38,-577.43"/>
<polygon fill="black" stroke="black" points="238.83,-576.84 233.54,-567.66 231.95,-578.14 238.83,-576.84"/>
<text text-anchor="middle" x="269.03" y="-587.8" font-family="Times,serif" font-size="14.00">[A&#45;Za&#45;z.]</text>
</g>
<!-- state14 -->
<g id="node15" class="node">
<title>state14</title>
<ellipse fill="none" stroke="black" cx="341.03" cy="-548" rx="27" ry="18"/>
<text text-anchor="middle" x="341.03" y="-544.3" font-family="Times,serif" font-size="14.00">14</text>
</g>
<!-- state14&#45;&gt;state0 -->
<g id="edge19" class="edge">
<title>state14&#45;&gt;state0</title>
<path fill="none" stroke="black" d="M335.88,-529.92C331.2,-512.88 325.03,-485.88 325.03,-462 325.03,-462 325.03,-462 325.03,-112 325.03,-90.02 315.1,-67.26 305.39,-50.25"/>
<polygon fill="black" stroke="black" points="308.43,-48.51 300.25,-41.77 302.44,-52.13 308.43,-48.51"/>
<text text-anchor="middle" x="329.03" y="-283.3" font-family="Times,serif" font-size="14.00">ε</text>
</g>
<!-- state15 -->
<g id="node16" class="node">
<title>state15</title>
<ellipse fill="none" stroke="black" cx="384.03" cy="-461" rx="27" ry="18"/>
<text text-anchor="middle" x="384.03" y="-457.3" font-family="Times,serif" font-size="14.00">15</text>
</g>
<!-- state14&#45;&gt;state15 -->
<g id="edge20" class="edge">
<title>state14&#45;&gt;state15</title>
<path fill="none" stroke="black" d="M346.39,-529.9C349.76,-520.03 354.51,-507.53 360.03,-497 361.77,-493.67 363.77,-490.28 365.86,-486.98"/>
<polygon fill="black" stroke="black" points="368.69,-489.04 371.36,-478.79 362.88,-485.14 368.69,-489.04"/>
<text text-anchor="middle" x="364.03" y="-500.8" font-family="Times,serif" font-size="14.00">ε</text>
</g>
<!-- state15&#45;&gt;state14 -->
<g id="edge21" class="edge">
<title>state15&#45;&gt;state14</title>
<path fill="none" stroke="black" d="M379.62,-479.21C376.73,-489.11 372.48,-501.61 367.03,-512 365.14,-515.59 362.9,-519.22 360.54,-522.7"/>
<polygon fill="black" stroke="black" points="357.72,-520.64 354.66,-530.78 363.38,-524.76 357.72,-520.64"/>
<text text-anchor="middle" x="403.03" y="-500.8" font-family="Times,serif" font-size="14.00">[A&#45;Za&#45;z.]</text>
</g>
<!-- state16 -->
<g id="node17" class="node">
<title>state16</title>
<ellipse fill="none" stroke="black" cx="326.03" cy="-635" rx="27" ry="18"/>
<text text-anchor="middle" x="326.03" y="-631.3" font-family="Times,serif" font-size="14.00">16</text>
</g>
<!-- state16&#45;&gt;state14 -->
<g id="edge22" class="edge">
<title>state16&#45;&gt;state14</title>
<path fill="none" stroke="black" d="M329.06,-616.8C331.05,-605.51 333.71,-590.47 336.01,-577.43"/>
<polygon fill="black" stroke="black" points="339.44,-578.12 337.73,-567.67 332.55,-576.91 339.44,-578.12"/>
<text text-anchor="middle" x="364.03" y="-587.8" font-family="Times,serif" font-size="14.00">[A&#45;Za&#45;z.]</text>
</g>
<!-- state17 -->
<g id="node18" class="node">
<title>state17</title>
<ellipse fill="none" stroke="black" cx="281.03" cy="-722" rx="27" ry="18"/>
<text text-anchor="middle" x="281.03" y="-718.3" font-family="Times,serif" font-size="14.00">17</text>
</g>
<!-- state17&#45;&gt;state13 -->
<g id="edge23" class="edge">
<title>state17&#45;&gt;state13</title>
<path fill="none" stroke="black" d="M274.11,-704.21C269.32,-692.56 262.83,-676.8 257.29,-663.36"/>
<polygon fill="black" stroke="black" points="260.55,-662.07 253.5,-654.16 254.07,-664.74 260.55,-662.07"/>
<text text-anchor="middle" x="270.03" y="-674.8" font-family="Times,serif" font-size="14.00">ε</text>
</g>
<!-- state17&#45;&gt;state16 -->
<g id="edge24" class="edge">
<title>state17&#45;&gt;state16</title>
<path fill="none" stroke="black" d="M289.7,-704.61C296.05,-692.62 304.8,-676.09 312.12,-662.27"/>
<polygon fill="black" stroke="black" points="315.08,-664.15 316.67,-653.68 308.9,-660.88 315.08,-664.15"/>
<text text-anchor="middle" x="311.03" y="-674.8" font-family="Times,serif" font-size="14.00">ε</text>
</g>
<!-- state18 -->
<g id="node19" class="node">
<title>state18</title>
<ellipse fill="none" stroke="black" cx="281.03" cy="-809" rx="27" ry="18"/>
<text text-anchor="middle" x="281.03" y="-805.3" font-family="Times,serif" font-size="14.00">18</text>
</g>
<!-- state18&#45;&gt;state17 -->
<g id="edge25" class="edge">
<title>state18&#45;&gt;state17</title>
<path fill="none" stroke="black" d="M281.03,-790.8C281.03,-779.58 281.03,-764.67 281.03,-751.69"/>
<polygon fill="black" stroke="black" points="284.53,-751.98 281.03,-741.98 277.53,-751.98 284.53,-751.98"/>
<text text-anchor="middle" x="287.53" y="-761.8" font-family="Times,serif" font-size="14.00">&#39;/&#39;</text>
</g>
<!-- state19 -->
<g id="node20" class="node">
<title>state19</title>
<ellipse fill="none" stroke="black" cx="281.03" cy="-896" rx="27" ry="18"/>
<text text-anchor="middle" x="281.03" y="-892.3" font-family="Times,serif" font-size="14.00">19</text>
</g>
<!-- state19&#45;&gt;state18 -->
<g id="edge26" class="edge">
<title>state19&#45;&gt;state18</title>
<path fill="none" stroke="black" d="M281.03,-877.8C281.03,-866.58 281.03,-851.67 281.03,-838.69"/>
<polygon fill="black" stroke="black" points="284.53,-838.98 281.03,-828.98 277.53,-838.98 284.53,-838.98"/>
<text text-anchor="middle" x="287.53" y="-848.8" font-family="Times,serif" font-size="14.00">&#39;/&#39;</text>
</g>
<!-- state20 -->
<g id="node21" class="node">
<title>state20</title>
<ellipse fill="none" stroke="black" cx="281.03" cy="-983" rx="27" ry="18"/>
<text text-anchor="middle" x="281.03" y="-979.3" font-family="Times,serif" font-size="14.00">20</text>
</g>
<!-- state20&#45;&gt;state19 -->
<g id="edge27" class="edge">
<title>state20&#45;&gt;state19</title>
<path fill="none" stroke="black" d="M281.03,-964.8C281.03,-953.58 281.03,-938.67 281.03,-925.69"/>
<polygon fill="black" stroke="black" points="284.53,-925.98 281.03,-915.98 277.53,-925.98 284.53,-925.98"/>
<text text-anchor="middle" x="287.53" y="-935.8" font-family="Times,serif" font-size="14.00">&#39;:&#39;</text>
</g>
<!-- state21 -->
<g id="node22" class="node">
<title>state21</title>
<ellipse fill="none" stroke="black" cx="318.03" cy="-1070" rx="27" ry="18"/>
<text text-anchor="middle" x="318.03" y="-1066.3" font-family="Times,serif" font-size="14.00">21</text>
</g>
<!-- state21&#45;&gt;state20 -->
<g id="edge28" class="edge">
<title>state21&#45;&gt;state20</title>
<path fill="none" stroke="black" d="M310.72,-1052.21C305.6,-1040.45 298.65,-1024.48 292.76,-1010.96"/>
<polygon fill="black" stroke="black" points="296.13,-1009.92 288.92,-1002.15 289.71,-1012.71 296.13,-1009.92"/>
<text text-anchor="middle" x="310.03" y="-1022.8" font-family="Times,serif" font-size="14.00">&#39;s&#39;</text>
</g>
<!-- state22 -->
<g id="node23" class="node">
<title>state22</title>
<ellipse fill="none" stroke="black" cx="281.03" cy="-1157" rx="27" ry="18"/>
<text text-anchor="middle" x="281.03" y="-1153.3" font-family="Times,serif" font-size="14.00">22</text>
</g>
<!-- state22&#45;&gt;state20 -->
<g id="edge30" class="edge">
<title>state22&#45;&gt;state20</title>
<path fill="none" stroke="black" d="M278.75,-1138.71C277.07,-1124.99 274.91,-1105.3 274.03,-1088 273.21,-1072.02 273.21,-1067.98 274.03,-1052 274.69,-1039.02 276.07,-1024.7 277.43,-1012.57"/>
<polygon fill="black" stroke="black" points="280.88,-1013.13 278.57,-1002.79 273.93,-1012.32 280.88,-1013.13"/>
<text text-anchor="middle" x="278.03" y="-1066.3" font-family="Times,serif" font-size="14.00">ε</text>
</g>
<!-- state22&#45;&gt;state21 -->
<g id="edge29" class="edge">
<title>state22&#45;&gt;state21</title>
<path fill="none" stroke="black" d="M288.34,-1139.21C293.45,-1127.45 300.4,-1111.48 306.29,-1097.96"/>
<polygon fill="black" stroke="black" points="309.34,-1099.71 310.13,-1089.15 302.93,-1096.92 309.34,-1099.71"/>
<text text-anchor="middle" x="306.03" y="-1109.8" font-family="Times,serif" font-size="14.00">ε</text>
</g>
<!-- state23 -->
<g id="node24" class="node">
<title>state23</title>
<ellipse fill="none" stroke="black" cx="281.03" cy="-1244" rx="27" ry="18"/>
<text text-anchor="middle" x="281.03" y="-1240.3" font-family="Times,serif" font-size="14.00">23</text>
</g>
<!-- state23&#45;&gt;state22 -->
<g id="edge31" class="edge">
<title>state23&#45;&gt;state22</title>
<path fill="none" stroke="black" d="M281.03,-1225.8C281.03,-1214.58 281.03,-1199.67 281.03,-1186.69"/>
<polygon fill="black" stroke="black" points="284.53,-1186.98 281.03,-1176.98 277.53,-1186.98 284.53,-1186.98"/>
<text text-anchor="middle" x="289.53" y="-1196.8" font-family="Times,serif" font-size="14.00">&#39;p&#39;</text>
</g>
<!-- state24 -->
<g id="node25" class="node">
<title>state24</title>
<ellipse fill="none" stroke="black" cx="281.03" cy="-1331" rx="27" ry="18"/>
<text text-anchor="middle" x="281.03" y="-1327.3" font-family="Times,serif" font-size="14.00">24</text>
</g>
<!-- state24&#45;&gt;state23 -->
<g id="edge32" class="edge">
<title>state24&#45;&gt;state23</title>
<path fill="none" stroke="black" d="M281.03,-1312.8C281.03,-1301.58 281.03,-1286.67 281.03,-1273.69"/>
<polygon fill="black" stroke="black" points="284.53,-1273.98 281.03,-1263.98 277.53,-1273.98 284.53,-1273.98"/>
<text text-anchor="middle" x="288.03" y="-1283.8" font-family="Times,serif" font-size="14.00">&#39;t&#39;</text>
</g>
<!-- state25 -->
<g id="node26" class="node">
<title>state25</title>
<ellipse fill="none" stroke="black" cx="281.03" cy="-1418" rx="27" ry="18"/>
<text text-anchor="middle" x="281.03" y="-1414.3" font-family="Times,serif" font-size="14.00">25</text>
</g>
<!-- state25&#45;&gt;state24 -->
<g id="edge33" class="edge">
<title>state25&#45;&gt;state24</title>
<path fill="none" stroke="black" d="M281.03,-1399.8C281.03,-1388.58 281.03,-1373.67 281.03,-1360.69"/>
<polygon fill="black" stroke="black" points="284.53,-1360.98 281.03,-1350.98 277.53,-1360.98 284.53,-1360.98"/>
<text text-anchor="middle" x="288.03" y="-1370.8" font-family="Times,serif" font-size="14.00">&#39;t&#39;</text>
</g>
<!-- state26 -->
<g id="node27" class="node">
<title>state26</title>
<ellipse fill="none" stroke="black" cx="281.03" cy="-1505" rx="27" ry="18"/>
<text text-anchor="middle" x="281.03" y="-1501.3" font-family="Times,serif" font-size="14.00">26</text>
</g>
<!-- state26&#45;&gt;state25 -->
<g id="edge34" class="edge">
<title>state26&#45;&gt;state25</title>
<path fill="none" stroke="black" d="M281.03,-1486.8C281.03,-1475.58 281.03,-1460.67 281.03,-1447.69"/>
<polygon fill="black" stroke="black" points="284.53,-1447.98 281.03,-1437.98 277.53,-1447.98 284.53,-1447.98"/>
<text text-anchor="middle" x="289.53" y="-1457.8" font-family="Times,serif" font-size="14.00">&#39;h&#39;</text>
</g>
<!-- start -->
<g id="node28" class="node">
<title>start</title>
<text text-anchor="middle" x="281.03" y="-1574.3" font-family="Times,serif" font-size="14.00">start</text>
</g>
<!-- start&#45;&gt;state26 -->
<g id="edge35" class="edge">
<title>start&#45;&gt;state26</title>
<path fill="none" stroke="black" d="M281.03,-1560.17C281.03,-1552.56 281.03,-1543.35 281.03,-1534.7"/>
<polygon fill="black" stroke="black" points="284.53,-1534.96 281.03,-1524.96 277.53,-1534.96 284.53,-1534.96"/>
</g>
</g>
</svg>
