<?xml version="1.0" encoding="UTF-8" standalone="no"?>
<!DOCTYPE svg PUBLIC "-//W3C//DTD SVG 1.1//EN"
 "http://www.w3.org/Graphics/SVG/1.1/DTD/svg11.dtd">
<!-- Generated by graphviz version 7.1.0 (0)
 -->
<!-- Title: NFA Pages: 1 -->
<svg width="682pt" height="908pt"
 viewBox="0.00 0.00 682.18 908.00" xmlns="http://www.w3.org/2000/svg" xmlns:xlink="http://www.w3.org/1999/xlink">
<g id="graph0" class="graph" transform="scale(1 1) rotate(0) translate(4 904)">
<title>NFA</title>
<polygon fill="white" stroke="none" points="-4,4 -4,-904 678.18,-904 678.18,4 -4,4"/>
<!-- state0 -->
<g id="node1" class="node">
<title>state0</title>
<ellipse fill="none" stroke="black" cx="263.18" cy="-22" rx="18" ry="18"/>
<ellipse fill="none" stroke="black" cx="263.18" cy="-22" rx="22" ry="22"/>
<text text-anchor="middle" x="263.18" y="-18.3" font-family="Times,serif" font-size="14.00">0</text>
</g>
<!-- state1 -->
<g id="node2" class="node">
<title>state1</title>
<ellipse fill="none" stroke="black" cx="291.18" cy="-113" rx="27" ry="18"/>
<text text-anchor="middle" x="291.18" y="-109.3" font-family="Times,serif" font-size="14.00">1</text>
</g>
<!-- state1&#45;&gt;state0 -->
<g id="edge1" class="edge">
<title>state1&#45;&gt;state0</title>
<path fill="none" stroke="black" d="M285.91,-95.26C282.26,-83.66 277.29,-67.86 272.93,-54"/>
<polygon fill="black" stroke="black" points="276.4,-53.35 270.06,-44.86 269.72,-55.45 276.4,-53.35"/>
<text text-anchor="middle" x="309.18" y="-65.8" font-family="Times,serif" font-size="14.00">[A&#45;Za&#45;z.]</text>
</g>
<!-- state1&#45;&gt;state1 -->
<g id="edge2" class="edge">
<title>state1&#45;&gt;state1</title>
<path fill="none" stroke="black" d="M315.71,-121.03C326.69,-121.79 336.18,-119.12 336.18,-113 336.18,-109.18 332.47,-106.7 327.01,-105.56"/>
<polygon fill="black" stroke="black" points="327.39,-102.08 317.22,-105.05 327.03,-109.07 327.39,-102.08"/>
<text text-anchor="middle" x="366.18" y="-109.3" font-family="Times,serif" font-size="14.00">[A&#45;Za&#45;z.]</text>
</g>
<!-- state2 -->
<g id="node3" class="node">
<title>state2</title>
<ellipse fill="none" stroke="black" cx="366.18" cy="-200" rx="27" ry="18"/>
<text text-anchor="middle" x="366.18" y="-196.3" font-family="Times,serif" font-size="14.00">2</text>
</g>
<!-- state2&#45;&gt;state0 -->
<g id="edge3" class="edge">
<title>state2&#45;&gt;state0</title>
<path fill="none" stroke="black" d="M380.92,-184.75C386.38,-178.78 392.21,-171.5 396.18,-164 410.66,-136.68 421.1,-121.51 405.18,-95 381.85,-56.15 330.15,-37.53 296,-29.16"/>
<polygon fill="black" stroke="black" points="297.15,-25.84 286.63,-27.04 295.61,-32.66 297.15,-25.84"/>
<text text-anchor="middle" x="442.18" y="-109.3" font-family="Times,serif" font-size="14.00">[A&#45;Za&#45;z.]</text>
</g>
<!-- state2&#45;&gt;state1 -->
<g id="edge4" class="edge">
<title>state2&#45;&gt;state1</title>
<path fill="none" stroke="black" d="M353.12,-184.19C341.68,-171.23 324.87,-152.18 311.65,-137.2"/>
<polygon fill="black" stroke="black" points="314.59,-135.24 305.35,-130.06 309.34,-139.87 314.59,-135.24"/>
<text text-anchor="middle" x="362.18" y="-152.8" font-family="Times,serif" font-size="14.00">[A&#45;Za&#45;z.]</text>
</g>
<!-- state3 -->
<g id="node4" class="node">
<title>state3</title>
<ellipse fill="none" stroke="black" cx="465.18" cy="-287" rx="27" ry="18"/>
<text text-anchor="middle" x="465.18" y="-283.3" font-family="Times,serif" font-size="14.00">3</text>
</g>
<!-- state3&#45;&gt;state0 -->
<g id="edge5" class="edge">
<title>state3&#45;&gt;state0</title>
<path fill="none" stroke="black" d="M489.8,-279.14C519.95,-269.68 571.09,-250.06 604.18,-218 646.21,-177.28 688.6,-140 651.18,-95 606.1,-40.78 382.65,-27.2 296.83,-23.96"/>
<polygon fill="black" stroke="black" points="297.06,-20.47 286.95,-23.62 296.82,-27.47 297.06,-20.47"/>
<text text-anchor="middle" x="667.68" y="-152.8" font-family="Times,serif" font-size="14.00">&#39;/&#39;</text>
</g>
<!-- state3&#45;&gt;state2 -->
<g id="edge6" class="edge">
<title>state3&#45;&gt;state2</title>
<path fill="none" stroke="black" d="M445.06,-274.7C434.51,-268.35 421.63,-259.92 411.18,-251 402.08,-243.23 393.06,-233.68 385.51,-225.01"/>
<polygon fill="black" stroke="black" points="388.34,-222.94 379.21,-217.56 383,-227.46 388.34,-222.94"/>
<text text-anchor="middle" x="417.68" y="-239.8" font-family="Times,serif" font-size="14.00">&#39;/&#39;</text>
</g>
<!-- state5 -->
<g id="node5" class="node">
<title>state5</title>
<ellipse fill="none" stroke="black" cx="447.18" cy="-200" rx="27" ry="18"/>
<text text-anchor="middle" x="447.18" y="-196.3" font-family="Times,serif" font-size="14.00">5</text>
</g>
<!-- state3&#45;&gt;state5 -->
<g id="edge7" class="edge">
<title>state3&#45;&gt;state5</title>
<path fill="none" stroke="black" d="M447.17,-273.03C440.52,-267.14 433.73,-259.57 430.18,-251 426.95,-243.2 428.24,-234.53 431.23,-226.64"/>
<polygon fill="black" stroke="black" points="434.26,-228.41 435.42,-217.88 427.95,-225.39 434.26,-228.41"/>
<text text-anchor="middle" x="436.68" y="-239.8" font-family="Times,serif" font-size="14.00">&#39;/&#39;</text>
</g>
<!-- state5&#45;&gt;state3 -->
<g id="edge10" class="edge">
<title>state5&#45;&gt;state3</title>
<path fill="none" stroke="black" d="M450.82,-218.18C453.21,-229.46 456.39,-244.5 459.15,-257.54"/>
<polygon fill="black" stroke="black" points="455.73,-258.26 461.22,-267.32 462.58,-256.81 455.73,-258.26"/>
<text text-anchor="middle" x="487.18" y="-239.8" font-family="Times,serif" font-size="14.00">[A&#45;Za&#45;z.]</text>
</g>
<!-- state4 -->
<g id="node6" class="node">
<title>state4</title>
<ellipse fill="none" stroke="black" cx="537.18" cy="-113" rx="27" ry="18"/>
<text text-anchor="middle" x="537.18" y="-109.3" font-family="Times,serif" font-size="14.00">4</text>
</g>
<!-- state5&#45;&gt;state4 -->
<g id="edge11" class="edge">
<title>state5&#45;&gt;state4</title>
<path fill="none" stroke="black" d="M450.31,-182.03C452.99,-171.47 457.81,-158.21 466.18,-149 471.81,-142.8 488.18,-134.58 503.77,-127.65"/>
<polygon fill="black" stroke="black" points="505.12,-130.88 512.92,-123.71 502.35,-124.46 505.12,-130.88"/>
<text text-anchor="middle" x="496.18" y="-152.8" font-family="Times,serif" font-size="14.00">[A&#45;Za&#45;z.]</text>
</g>
<!-- state4&#45;&gt;state3 -->
<g id="edge8" class="edge">
<title>state4&#45;&gt;state3</title>
<path fill="none" stroke="black" d="M539.64,-131.13C542.68,-158.69 544.87,-213.57 521.18,-251 515.66,-259.73 507.08,-266.65 498.29,-271.95"/>
<polygon fill="black" stroke="black" points="496.91,-268.72 489.76,-276.54 500.22,-274.89 496.91,-268.72"/>
<text text-anchor="middle" x="570.18" y="-196.3" font-family="Times,serif" font-size="14.00">[A&#45;Za&#45;z.]</text>
</g>
<!-- state4&#45;&gt;state4 -->
<g id="edge9" class="edge">
<title>state4&#45;&gt;state4</title>
<path fill="none" stroke="black" d="M561.71,-121.03C572.69,-121.79 582.18,-119.12 582.18,-113 582.18,-109.18 578.47,-106.7 573.01,-105.56"/>
<polygon fill="black" stroke="black" points="573.39,-102.08 563.22,-105.05 573.03,-109.07 573.39,-102.08"/>
<text text-anchor="middle" x="612.18" y="-109.3" font-family="Times,serif" font-size="14.00">[A&#45;Za&#45;z.]</text>
</g>
<!-- state6 -->
<g id="node7" class="node">
<title>state6</title>
<ellipse fill="none" stroke="black" cx="304.18" cy="-287" rx="27" ry="18"/>
<text text-anchor="middle" x="304.18" y="-283.3" font-family="Times,serif" font-size="14.00">6</text>
</g>
<!-- state6&#45;&gt;state0 -->
<g id="edge12" class="edge">
<title>state6&#45;&gt;state0</title>
<path fill="none" stroke="black" d="M296.99,-269.21C285.42,-241.2 263.18,-182.88 255.18,-131 252.74,-115.19 254.29,-110.98 255.18,-95 255.9,-81.96 257.35,-67.66 258.83,-55.26"/>
<polygon fill="black" stroke="black" points="262.27,-55.91 260.03,-45.56 255.32,-55.05 262.27,-55.91"/>
<text text-anchor="middle" x="267.68" y="-152.8" font-family="Times,serif" font-size="14.00">&#39;/&#39;</text>
</g>
<!-- state6&#45;&gt;state2 -->
<g id="edge13" class="edge">
<title>state6&#45;&gt;state2</title>
<path fill="none" stroke="black" d="M304.86,-268.55C305.99,-258.33 308.72,-245.58 315.18,-236 320.24,-228.49 327.51,-222.12 334.97,-216.97"/>
<polygon fill="black" stroke="black" points="336.48,-220.16 343.11,-211.89 332.77,-214.22 336.48,-220.16"/>
<text text-anchor="middle" x="321.68" y="-239.8" font-family="Times,serif" font-size="14.00">&#39;/&#39;</text>
</g>
<!-- state6&#45;&gt;state5 -->
<g id="edge14" class="edge">
<title>state6&#45;&gt;state5</title>
<path fill="none" stroke="black" d="M322,-273.29C336.97,-262.82 359.08,-247.82 379.18,-236 390.83,-229.15 403.98,-222.21 415.58,-216.33"/>
<polygon fill="black" stroke="black" points="416.97,-219.55 424.36,-211.95 413.85,-213.29 416.97,-219.55"/>
<text text-anchor="middle" x="385.68" y="-239.8" font-family="Times,serif" font-size="14.00">&#39;/&#39;</text>
</g>
<!-- state7 -->
<g id="node8" class="node">
<title>state7</title>
<ellipse fill="none" stroke="black" cx="163.18" cy="-374" rx="27" ry="18"/>
<text text-anchor="middle" x="163.18" y="-370.3" font-family="Times,serif" font-size="14.00">7</text>
</g>
<!-- state7&#45;&gt;state6 -->
<g id="edge15" class="edge">
<title>state7&#45;&gt;state6</title>
<path fill="none" stroke="black" d="M179.6,-359.29C192.78,-348.65 212.02,-333.92 230.18,-323 243.12,-315.22 258.07,-307.87 271.12,-301.93"/>
<polygon fill="black" stroke="black" points="272.46,-305.17 280.18,-297.91 269.62,-298.77 272.46,-305.17"/>
<text text-anchor="middle" x="260.18" y="-326.8" font-family="Times,serif" font-size="14.00">[A&#45;Za&#45;z.]</text>
</g>
<!-- state7&#45;&gt;state7 -->
<g id="edge16" class="edge">
<title>state7&#45;&gt;state7</title>
<path fill="none" stroke="black" d="M187.71,-382.03C198.69,-382.79 208.18,-380.12 208.18,-374 208.18,-370.18 204.47,-367.7 199.01,-366.56"/>
<polygon fill="black" stroke="black" points="199.39,-363.08 189.22,-366.05 199.03,-370.07 199.39,-363.08"/>
<text text-anchor="middle" x="238.18" y="-370.3" font-family="Times,serif" font-size="14.00">[A&#45;Za&#45;z.]</text>
</g>
<!-- state8 -->
<g id="node9" class="node">
<title>state8</title>
<ellipse fill="none" stroke="black" cx="163.18" cy="-461" rx="27" ry="18"/>
<text text-anchor="middle" x="163.18" y="-457.3" font-family="Times,serif" font-size="14.00">8</text>
</g>
<!-- state8&#45;&gt;state6 -->
<g id="edge17" class="edge">
<title>state8&#45;&gt;state6</title>
<path fill="none" stroke="black" d="M187.29,-452.23C213.6,-442.47 254.93,-423.12 277.18,-392 293.02,-369.85 299.57,-339.15 302.28,-316.85"/>
<polygon fill="black" stroke="black" points="305.76,-317.23 303.27,-306.94 298.79,-316.54 305.76,-317.23"/>
<text text-anchor="middle" x="323.18" y="-370.3" font-family="Times,serif" font-size="14.00">[A&#45;Za&#45;z.]</text>
</g>
<!-- state8&#45;&gt;state7 -->
<g id="edge18" class="edge">
<title>state8&#45;&gt;state7</title>
<path fill="none" stroke="black" d="M163.18,-442.8C163.18,-431.58 163.18,-416.67 163.18,-403.69"/>
<polygon fill="black" stroke="black" points="166.68,-403.98 163.18,-393.98 159.68,-403.98 166.68,-403.98"/>
<text text-anchor="middle" x="193.18" y="-413.8" font-family="Times,serif" font-size="14.00">[A&#45;Za&#45;z.]</text>
</g>
<!-- state9 -->
<g id="node10" class="node">
<title>state9</title>
<ellipse fill="none" stroke="black" cx="103.18" cy="-113" rx="27" ry="18"/>
<text text-anchor="middle" x="103.18" y="-109.3" font-family="Times,serif" font-size="14.00">9</text>
</g>
<!-- state9&#45;&gt;state0 -->
<g id="edge19" class="edge">
<title>state9&#45;&gt;state0</title>
<path fill="none" stroke="black" d="M117.63,-97.33C128.96,-86.46 145.55,-71.87 162.18,-62 183.9,-49.11 210.64,-39 231.16,-32.31"/>
<polygon fill="black" stroke="black" points="232.2,-35.65 240.69,-29.32 230.1,-28.98 232.2,-35.65"/>
<text text-anchor="middle" x="192.18" y="-65.8" font-family="Times,serif" font-size="14.00">[A&#45;Za&#45;z.]</text>
</g>
<!-- state9&#45;&gt;state9 -->
<g id="edge20" class="edge">
<title>state9&#45;&gt;state9</title>
<path fill="none" stroke="black" d="M127.71,-121.03C138.69,-121.79 148.18,-119.12 148.18,-113 148.18,-109.18 144.47,-106.7 139.01,-105.56"/>
<polygon fill="black" stroke="black" points="139.39,-102.08 129.22,-105.05 139.03,-109.07 139.39,-102.08"/>
<text text-anchor="middle" x="178.18" y="-109.3" font-family="Times,serif" font-size="14.00">[A&#45;Za&#45;z.]</text>
</g>
<!-- state10 -->
<g id="node11" class="node">
<title>state10</title>
<ellipse fill="none" stroke="black" cx="103.18" cy="-200" rx="27" ry="18"/>
<text text-anchor="middle" x="103.18" y="-196.3" font-family="Times,serif" font-size="14.00">10</text>
</g>
<!-- state10&#45;&gt;state0 -->
<g id="edge21" class="edge">
<title>state10&#45;&gt;state0</title>
<path fill="none" stroke="black" d="M81.13,-188.96C44.83,-171.06 -20.86,-132.02 7.18,-95 34.22,-59.3 167.29,-36.36 230.16,-27.34"/>
<polygon fill="black" stroke="black" points="230.48,-30.83 239.9,-25.98 229.51,-23.9 230.48,-30.83"/>
<text text-anchor="middle" x="37.18" y="-109.3" font-family="Times,serif" font-size="14.00">[A&#45;Za&#45;z.]</text>
</g>
<!-- state10&#45;&gt;state9 -->
<g id="edge22" class="edge">
<title>state10&#45;&gt;state9</title>
<path fill="none" stroke="black" d="M103.18,-181.8C103.18,-170.58 103.18,-155.67 103.18,-142.69"/>
<polygon fill="black" stroke="black" points="106.68,-142.98 103.18,-132.98 99.68,-142.98 106.68,-142.98"/>
<text text-anchor="middle" x="133.18" y="-152.8" font-family="Times,serif" font-size="14.00">[A&#45;Za&#45;z.]</text>
</g>
<!-- state11 -->
<g id="node12" class="node">
<title>state11</title>
<ellipse fill="none" stroke="black" cx="120.18" cy="-548" rx="27" ry="18"/>
<text text-anchor="middle" x="120.18" y="-544.3" font-family="Times,serif" font-size="14.00">11</text>
</g>
<!-- state11&#45;&gt;state8 -->
<g id="edge23" class="edge">
<title>state11&#45;&gt;state8</title>
<path fill="none" stroke="black" d="M128.47,-530.61C134.54,-518.62 142.9,-502.09 149.89,-488.27"/>
<polygon fill="black" stroke="black" points="152.84,-490.19 154.23,-479.69 146.59,-487.03 152.84,-490.19"/>
<text text-anchor="middle" x="150.68" y="-500.8" font-family="Times,serif" font-size="14.00">&#39;/&#39;</text>
</g>
<!-- state11&#45;&gt;state10 -->
<g id="edge24" class="edge">
<title>state11&#45;&gt;state10</title>
<path fill="none" stroke="black" d="M115.03,-529.92C110.35,-512.88 104.18,-485.88 104.18,-462 104.18,-462 104.18,-462 104.18,-286 104.18,-267.12 103.93,-245.88 103.68,-229.35"/>
<polygon fill="black" stroke="black" points="107.19,-229.71 103.53,-219.77 100.19,-229.82 107.19,-229.71"/>
<text text-anchor="middle" x="110.68" y="-370.3" font-family="Times,serif" font-size="14.00">&#39;/&#39;</text>
</g>
<!-- state12 -->
<g id="node13" class="node">
<title>state12</title>
<ellipse fill="none" stroke="black" cx="120.18" cy="-635" rx="27" ry="18"/>
<text text-anchor="middle" x="120.18" y="-631.3" font-family="Times,serif" font-size="14.00">12</text>
</g>
<!-- state12&#45;&gt;state11 -->
<g id="edge25" class="edge">
<title>state12&#45;&gt;state11</title>
<path fill="none" stroke="black" d="M120.18,-616.8C120.18,-605.58 120.18,-590.67 120.18,-577.69"/>
<polygon fill="black" stroke="black" points="123.68,-577.98 120.18,-567.98 116.68,-577.98 123.68,-577.98"/>
<text text-anchor="middle" x="126.68" y="-587.8" font-family="Times,serif" font-size="14.00">&#39;/&#39;</text>
</g>
<!-- state13 -->
<g id="node14" class="node">
<title>state13</title>
<ellipse fill="none" stroke="black" cx="120.18" cy="-722" rx="27" ry="18"/>
<text text-anchor="middle" x="120.18" y="-718.3" font-family="Times,serif" font-size="14.00">13</text>
</g>
<!-- state13&#45;&gt;state12 -->
<g id="edge26" class="edge">
<title>state13&#45;&gt;state12</title>
<path fill="none" stroke="black" d="M120.18,-703.8C120.18,-692.58 120.18,-677.67 120.18,-664.69"/>
<polygon fill="black" stroke="black" points="123.68,-664.98 120.18,-654.98 116.68,-664.98 123.68,-664.98"/>
<text text-anchor="middle" x="126.68" y="-674.8" font-family="Times,serif" font-size="14.00">&#39;:&#39;</text>
</g>
<!-- state14 -->
<g id="node15" class="node">
<title>state14</title>
<ellipse fill="none" stroke="black" cx="81.18" cy="-809" rx="27" ry="18"/>
<text text-anchor="middle" x="81.18" y="-805.3" font-family="Times,serif" font-size="14.00">14</text>
</g>
<!-- state14&#45;&gt;state13 -->
<g id="edge27" class="edge">
<title>state14&#45;&gt;state13</title>
<path fill="none" stroke="black" d="M88.7,-791.61C94.11,-779.81 101.54,-763.63 107.82,-749.94"/>
<polygon fill="black" stroke="black" points="110.93,-751.55 111.92,-741 104.57,-748.63 110.93,-751.55"/>
<text text-anchor="middle" x="111.18" y="-761.8" font-family="Times,serif" font-size="14.00">&#39;s&#39;</text>
</g>
<!-- start -->
<g id="node16" class="node">
<title>start</title>
<text text-anchor="middle" x="116.18" y="-878.3" font-family="Times,serif" font-size="14.00">start</text>
</g>
<!-- start&#45;&gt;state13 -->
<g id="edge28" class="edge">
<title>start&#45;&gt;state13</title>
<path fill="none" stroke="black" d="M117.81,-864.3C119.94,-840.65 123.27,-796.04 122.18,-758 122.12,-755.94 122.04,-753.82 121.95,-751.69"/>
<polygon fill="black" stroke="black" points="125.46,-751.76 121.45,-741.95 118.47,-752.12 125.46,-751.76"/>
</g>
<!-- start&#45;&gt;state14 -->
<g id="edge29" class="edge">
<title>start&#45;&gt;state14</title>
<path fill="none" stroke="black" d="M107.89,-864.17C103.82,-855.92 98.82,-845.79 94.25,-836.52"/>
<polygon fill="black" stroke="black" points="97.4,-835 89.84,-827.57 91.13,-838.09 97.4,-835"/>
</g>
</g>
</svg>
